<svg xmlns="http://www.w3.org/2000/svg" viewBox="0 0 512 512"><!--!Font Awesome Free 6.7.2 by @fontawesome - https://fontawesome.com License - https://fontawesome.com/license/free Copyright 2025 Fonticons, Inc. (bullet shapes modified)--><path fill-rule="evenodd" d="M192 64c-17.7 0-32 14.3-32 32s14.3 32 32 32l288 0c17.7 0 32-14.3 32-32s-14.3-32-32-32L192 64zm0 160c-17.7 0-32 14.3-32 32s14.3 32 32 32l288 0c17.7 0 32-14.3 32-32s-14.3-32-32-32l-288 0zm0 160c-17.7 0-32 14.3-32 32s14.3 32 32 32l288 0c17.7 0 32-14.3 32-32s-14.3-32-32-32l-288 0zM64 48 A48 48 0 1 0 64 144 A48 48 0 1 0 64 48 Z M64 68 A28 28 0 1 1 64 124 A28 28 0 1 1 64 68 Z M64 208 A48 48 0 1 0 64 304 A48 48 0 1 0 64 208 Z M64 228 A28 28 0 1 1 64 284 A28 28 0 1 1 64 228 Z M64 368 A48 48 0 1 0 64 464 A48 48 0 1 0 64 368 Z M64 388 A28 28 0 1 1 64 444 A28 28 0 1 1 64 388 Z"/></svg>
